<?xml version="1.0" encoding="UTF-8" standalone="no"?>
<svg
   xmlns:dc="http://purl.org/dc/elements/1.1/"
   xmlns:cc="http://creativecommons.org/ns#"
   xmlns:rdf="http://www.w3.org/1999/02/22-rdf-syntax-ns#"
   xmlns:svg="http://www.w3.org/2000/svg"
   xmlns="http://www.w3.org/2000/svg"
   xmlns:sodipodi="http://sodipodi.sourceforge.net/DTD/sodipodi-0.dtd"
   xmlns:inkscape="http://www.inkscape.org/namespaces/inkscape"
   inkscape:export-ydpi="15.938122"
   inkscape:export-xdpi="15.938122"
   inkscape:export-filename="D:\Dropbox\My projects\scratchpad\cov_shiny\server\www\img\favicon.png"
   inkscape:version="1.0beta1 (fe3e306, 2019-09-17)"
   sodipodi:docname="virus-solid.svg"
   id="svg4"
   version="1.1"
   viewBox="0 0 512 512"
   role="img"
   class="svg-inline--fa fa-virus fa-w-16"
   data-icon="virus"
   data-prefix="fas"
   focusable="false"
   aria-hidden="true">
  <metadata
     id="metadata10">
    <rdf:RDF>
      <cc:Work
         rdf:about="">
        <dc:format>image/svg+xml</dc:format>
        <dc:type
           rdf:resource="http://purl.org/dc/dcmitype/StillImage" />
      </cc:Work>
    </rdf:RDF>
  </metadata>
  <defs
     id="defs8" />
  <sodipodi:namedview
     inkscape:current-layer="svg4"
     inkscape:window-maximized="1"
     inkscape:window-y="-9"
     inkscape:window-x="-9"
     inkscape:cy="256"
     inkscape:cx="256"
     inkscape:zoom="0.4609375"
     showgrid="false"
     id="namedview6"
     inkscape:window-height="1001"
     inkscape:window-width="1920"
     inkscape:pageshadow="2"
     inkscape:pageopacity="0"
     guidetolerance="10"
     gridtolerance="10"
     objecttolerance="10"
     borderopacity="1"
     inkscape:document-rotation="0"
     bordercolor="#666666"
     pagecolor="#ffffff" />
  <path
     style="fill:#c83737"
     id="path2"
     d="M483.55,227.55H462c-50.68,0-76.07-61.27-40.23-97.11L437,115.19A28.44,28.44,0,0,0,396.8,75L381.56,90.22c-35.84,35.83-97.11,10.45-97.11-40.23V28.44a28.45,28.45,0,0,0-56.9,0V50c0,50.68-61.27,76.06-97.11,40.23L115.2,75A28.44,28.44,0,0,0,75,115.19l15.25,15.25c35.84,35.84,10.45,97.11-40.23,97.11H28.45a28.45,28.45,0,1,0,0,56.89H50c50.68,0,76.07,61.28,40.23,97.12L75,396.8A28.45,28.45,0,0,0,115.2,437l15.24-15.25c35.84-35.84,97.11-10.45,97.11,40.23v21.54a28.45,28.45,0,0,0,56.9,0V462c0-50.68,61.27-76.07,97.11-40.23L396.8,437A28.45,28.45,0,0,0,437,396.8l-15.25-15.24c-35.84-35.84-10.45-97.12,40.23-97.12h21.54a28.45,28.45,0,1,0,0-56.89ZM224,272a48,48,0,1,1,48-48A48,48,0,0,1,224,272Zm80,56a24,24,0,1,1,24-24A24,24,0,0,1,304,328Z"
     fill="currentColor" />
</svg>
